<svg xmlns="http://www.w3.org/2000/svg" viewBox="0 0 512 512">
  <defs>
    <linearGradient id="g" x1="0" x2="1" y1="0" y2="1"><stop stop-color="#38bdf8"/><stop offset="1" stop-color="#2563eb"/></linearGradient>
    <filter id="s"><feDropShadow dx="0" dy="18" stdDeviation="24" flood-color="#000" flood-opacity=".45"/></filter>
  </defs>
  <rect width="512" height="512" rx="112" fill="#020817"/>
  <rect x="32" y="32" width="448" height="448" rx="96" fill="#081c34"/>
  <path d="M78 354C150 196 268 91 424 70c-84 86-136 190-152 356-54-38-119-62-194-72Z" fill="url(#g)" opacity=".35"/>
  <path d="M120 348C178 224 268 137 379 100c-70 82-105 170-118 300-44-25-92-42-141-52Z" fill="url(#g)" filter="url(#s)"/>
  <path d="M166 344c44-91 104-152 178-182-45 66-75 134-88 212-29-12-58-22-90-30Z" fill="#fff"/>
  <path d="m286 151 109-61 25 14-86 77 44 24-16 21-55-20-47 47-18-16 36-55-49-24 23-18 34 11Z" fill="#e6f7ff"/>
  <path d="M105 410c92-13 178 11 259 70-104-8-190-30-259-70Z" fill="#22d3ee"/>
</svg>
