<svg xmlns="http://www.w3.org/2000/svg" width="1600" height="900" viewBox="0 0 1600 900">
  <defs>
    <linearGradient id="sky" x1="0" y1="0" x2="1" y2="1">
      <stop offset="0" stop-color="#dff3ff"/>
      <stop offset="0.55" stop-color="#94c6d8"/>
      <stop offset="1" stop-color="#154860"/>
    </linearGradient>
    <linearGradient id="glass" x1="0" y1="0" x2="1" y2="1">
      <stop offset="0" stop-color="#eff8ff" stop-opacity="0.94"/>
      <stop offset="1" stop-color="#224a5d" stop-opacity="0.9"/>
    </linearGradient>
    <filter id="shadow" x="-20%" y="-20%" width="140%" height="140%">
      <feDropShadow dx="0" dy="22" stdDeviation="20" flood-color="#0c2433" flood-opacity="0.28"/>
    </filter>
  </defs>
  <rect width="1600" height="900" fill="url(#sky)"/>
  <circle cx="1250" cy="150" r="84" fill="#fff7cc" opacity="0.75"/>
  <path d="M0 690 C260 610 430 760 680 675 C960 580 1180 710 1600 600 L1600 900 L0 900Z" fill="#0e5a5e" opacity="0.18"/>
  <path d="M0 760 C320 680 470 800 740 735 C1020 665 1210 780 1600 700 L1600 900 L0 900Z" fill="#0d3f51" opacity="0.22"/>
  <g filter="url(#shadow)">
    <rect x="520" y="190" width="560" height="610" rx="28" fill="#f6fbff"/>
    <rect x="575" y="245" width="450" height="500" rx="18" fill="url(#glass)" opacity="0.96"/>
    <g fill="#ffffff" opacity="0.82">
      <rect x="615" y="285" width="70" height="70" rx="10"/>
      <rect x="720" y="285" width="70" height="70" rx="10"/>
      <rect x="825" y="285" width="70" height="70" rx="10"/>
      <rect x="930" y="285" width="70" height="70" rx="10"/>
      <rect x="615" y="390" width="70" height="70" rx="10"/>
      <rect x="720" y="390" width="70" height="70" rx="10"/>
      <rect x="825" y="390" width="70" height="70" rx="10"/>
      <rect x="930" y="390" width="70" height="70" rx="10"/>
      <rect x="615" y="495" width="70" height="70" rx="10"/>
      <rect x="720" y="495" width="70" height="70" rx="10"/>
      <rect x="825" y="495" width="70" height="70" rx="10"/>
      <rect x="930" y="495" width="70" height="70" rx="10"/>
      <rect x="615" y="600" width="70" height="70" rx="10"/>
      <rect x="720" y="600" width="70" height="70" rx="10"/>
      <rect x="825" y="600" width="70" height="70" rx="10"/>
      <rect x="930" y="600" width="70" height="70" rx="10"/>
    </g>
    <rect x="745" y="690" width="110" height="110" rx="14" fill="#11374c"/>
    <rect x="785" y="720" width="30" height="80" rx="8" fill="#dff3ff" opacity="0.7"/>
  </g>
  <g fill="#0f3b48" opacity="0.18">
    <circle cx="335" cy="765" r="48"/>
    <circle cx="410" cy="740" r="68"/>
    <circle cx="1210" cy="765" r="74"/>
    <circle cx="1300" cy="735" r="52"/>
  </g>
</svg>
