<svg width="1600" height="900" viewBox="0 0 1600 900" fill="none" xmlns="http://www.w3.org/2000/svg">
  <defs>
    <linearGradient id="sky" x1="0" y1="0" x2="1600" y2="900" gradientUnits="userSpaceOnUse">
      <stop stop-color="#1f5f73"/>
      <stop offset="0.52" stop-color="#143D5A"/>
      <stop offset="1" stop-color="#102538"/>
    </linearGradient>
    <linearGradient id="tower" x1="0" y1="120" x2="0" y2="860" gradientUnits="userSpaceOnUse">
      <stop stop-color="#F4F7FB"/>
      <stop offset="1" stop-color="#C8D4E2"/>
    </linearGradient>
    <filter id="shadow" x="-50" y="-50" width="1700" height="1000" filterUnits="userSpaceOnUse" color-interpolation-filters="sRGB">
      <feDropShadow dx="0" dy="28" stdDeviation="30" flood-color="#061320" flood-opacity="0.35"/>
    </filter>
  </defs>
  <rect width="1600" height="900" fill="url(#sky)"/>
  <circle cx="1220" cy="190" r="110" fill="#F8D67C" opacity="0.35"/>
  <path d="M0 700C190 650 320 690 455 640C585 592 725 595 850 650C978 706 1110 738 1250 690C1390 642 1500 665 1600 630V900H0V700Z" fill="#0C2237" opacity="0.45"/>
  <g filter="url(#shadow)">
    <rect x="470" y="155" width="250" height="670" rx="22" fill="url(#tower)"/>
    <rect x="760" y="95" width="305" height="730" rx="24" fill="#E9EFF6"/>
    <rect x="1105" y="220" width="220" height="605" rx="20" fill="#DCE7F1"/>
    <rect x="515" y="205" width="60" height="58" rx="8" fill="#335A76" opacity="0.72"/>
    <rect x="615" y="205" width="60" height="58" rx="8" fill="#335A76" opacity="0.72"/>
    <rect x="515" y="310" width="60" height="58" rx="8" fill="#335A76" opacity="0.72"/>
    <rect x="615" y="310" width="60" height="58" rx="8" fill="#335A76" opacity="0.72"/>
    <rect x="515" y="415" width="60" height="58" rx="8" fill="#335A76" opacity="0.72"/>
    <rect x="615" y="415" width="60" height="58" rx="8" fill="#335A76" opacity="0.72"/>
    <rect x="515" y="520" width="60" height="58" rx="8" fill="#335A76" opacity="0.72"/>
    <rect x="615" y="520" width="60" height="58" rx="8" fill="#335A76" opacity="0.72"/>
    <rect x="818" y="155" width="70" height="62" rx="9" fill="#345C78" opacity="0.75"/>
    <rect x="935" y="155" width="70" height="62" rx="9" fill="#345C78" opacity="0.75"/>
    <rect x="818" y="270" width="70" height="62" rx="9" fill="#345C78" opacity="0.75"/>
    <rect x="935" y="270" width="70" height="62" rx="9" fill="#345C78" opacity="0.75"/>
    <rect x="818" y="385" width="70" height="62" rx="9" fill="#345C78" opacity="0.75"/>
    <rect x="935" y="385" width="70" height="62" rx="9" fill="#345C78" opacity="0.75"/>
    <rect x="818" y="500" width="70" height="62" rx="9" fill="#345C78" opacity="0.75"/>
    <rect x="935" y="500" width="70" height="62" rx="9" fill="#345C78" opacity="0.75"/>
    <rect x="1148" y="275" width="54" height="52" rx="8" fill="#355F7A" opacity="0.72"/>
    <rect x="1242" y="275" width="54" height="52" rx="8" fill="#355F7A" opacity="0.72"/>
    <rect x="1148" y="380" width="54" height="52" rx="8" fill="#355F7A" opacity="0.72"/>
    <rect x="1242" y="380" width="54" height="52" rx="8" fill="#355F7A" opacity="0.72"/>
    <rect x="1148" y="485" width="54" height="52" rx="8" fill="#355F7A" opacity="0.72"/>
    <rect x="1242" y="485" width="54" height="52" rx="8" fill="#355F7A" opacity="0.72"/>
    <rect x="860" y="680" width="105" height="145" rx="14" fill="#25465E" opacity="0.9"/>
  </g>
  <rect y="760" width="1600" height="140" fill="#071B2B" opacity="0.38"/>
</svg>
