<svg xmlns="http://www.w3.org/2000/svg" viewBox="0 0 512 512" role="img" aria-label="Logo Vitória Régia">
  <defs>
    <linearGradient id="g" x1="0" y1="0" x2="1" y2="1">
      <stop offset="0" stop-color="#0f6c83"/>
      <stop offset="0.58" stop-color="#0b4e63"/>
      <stop offset="1" stop-color="#d9a441"/>
    </linearGradient>
    <linearGradient id="w" x1="0" y1="0" x2="0" y2="1">
      <stop offset="0" stop-color="#ffffff" stop-opacity="0.98"/>
      <stop offset="1" stop-color="#e9f7fb" stop-opacity="0.88"/>
    </linearGradient>
    <filter id="s" x="-20%" y="-20%" width="140%" height="140%">
      <feDropShadow dx="0" dy="18" stdDeviation="18" flood-color="#082333" flood-opacity="0.28"/>
    </filter>
  </defs>
  <rect width="512" height="512" rx="116" fill="url(#g)"/>
  <circle cx="392" cy="116" r="46" fill="#f3ca73" opacity="0.86"/>
  <g filter="url(#s)">
    <path d="M116 370V178c0-22 18-40 40-40h200c22 0 40 18 40 40v192" fill="url(#w)" opacity="0.98"/>
    <path d="M96 370h320v40H96z" fill="#ffffff" opacity="0.94"/>
    <path d="M158 198h54v52h-54zm72 0h54v52h-54zm72 0h54v52h-54zM158 272h54v52h-54zm72 0h54v52h-54zm72 0h54v52h-54z" fill="#0f6c83" opacity="0.92"/>
    <path d="M216 410v-68c0-13 11-24 24-24h32c13 0 24 11 24 24v68z" fill="#0b4e63"/>
  </g>
  <path d="M129 118c36-36 84-55 128-55 54 0 101 24 132 62-40-22-84-30-128-20-47 10-88 33-132 13z" fill="#ffffff" opacity="0.18"/>
  <text x="256" y="470" text-anchor="middle" font-family="Arial, sans-serif" font-size="44" font-weight="800" fill="#ffffff" opacity="0.92">VR</text>
</svg>
