<svg width="160" height="160" viewBox="0 0 160 160" fill="none" xmlns="http://www.w3.org/2000/svg" role="img" aria-labelledby="title desc">
  <title id="title">Logo Vitória Régia</title>
  <desc id="desc">Símbolo circular dourado e azul com torres residenciais</desc>
  <defs>
    <linearGradient id="bg" x1="28" y1="22" x2="132" y2="142" gradientUnits="userSpaceOnUse">
      <stop stop-color="#0D3A67"/>
      <stop offset="1" stop-color="#04172D"/>
    </linearGradient>
    <linearGradient id="gold" x1="41" y1="26" x2="124" y2="139" gradientUnits="userSpaceOnUse">
      <stop stop-color="#FFE6A3"/>
      <stop offset="0.45" stop-color="#D5A84F"/>
      <stop offset="1" stop-color="#8C6224"/>
    </linearGradient>
    <filter id="shadow" x="-20" y="-20" width="200" height="200" filterUnits="userSpaceOnUse" color-interpolation-filters="sRGB">
      <feDropShadow dx="0" dy="12" stdDeviation="8" flood-color="#020B14" flood-opacity="0.35"/>
    </filter>
  </defs>
  <circle cx="80" cy="80" r="72" fill="url(#bg)" filter="url(#shadow)"/>
  <circle cx="80" cy="80" r="67" stroke="url(#gold)" stroke-width="6"/>
  <circle cx="80" cy="80" r="55" stroke="#EED489" stroke-width="1.5" opacity="0.5"/>
  <path d="M30 112C50 86 88 78 130 56" stroke="url(#gold)" stroke-width="8" stroke-linecap="round"/>
  <path d="M35 121C61 101 95 93 127 87" stroke="#F7D980" stroke-width="4" stroke-linecap="round" opacity="0.95"/>
  <path d="M52 103V62L75 50V103H52Z" fill="url(#gold)"/>
  <path d="M83 103V38L112 55V103H83Z" fill="url(#gold)"/>
  <path d="M59 70H70M59 80H70M59 90H70M90 58H105M90 70H105M90 82H105M90 94H105" stroke="#06213D" stroke-width="3" stroke-linecap="round" opacity="0.65"/>
  <path d="M46 105H118" stroke="#FFE6A3" stroke-width="5" stroke-linecap="round"/>
</svg>
