<svg xmlns="http://www.w3.org/2000/svg" viewBox="0 0 760 300" role="img" aria-label="Vitória Régia Condomínio">
  <defs>
    <linearGradient id="tower" x1="178" y1="40" x2="380" y2="215" gradientUnits="userSpaceOnUse">
      <stop stop-color="#67f0da"/>
      <stop offset="1" stop-color="#149985"/>
    </linearGradient>
    <linearGradient id="line" x1="100" y1="0" x2="650" y2="0" gradientUnits="userSpaceOnUse">
      <stop stop-color="#23c5b0" stop-opacity="0"/>
      <stop offset=".5" stop-color="#61ead7"/>
      <stop offset="1" stop-color="#23c5b0" stop-opacity="0"/>
    </linearGradient>
    <filter id="shadow" x="-20%" y="-20%" width="140%" height="140%">
      <feDropShadow dx="0" dy="10" stdDeviation="10" flood-color="#000" flood-opacity=".25"/>
    </filter>
  </defs>
  <rect width="760" height="300" rx="38" fill="none"/>
  <g filter="url(#shadow)" fill="none" stroke-linecap="round" stroke-linejoin="round">
    <path d="M268 172V70c0-13 11-24 24-24h54v126" stroke="url(#tower)" stroke-width="13"/>
    <path d="M366 172V47c0-14 12-26 26-26h62c14 0 26 12 26 26v125" stroke="url(#tower)" stroke-width="13"/>
    <path d="M216 172v-70c0-12 10-22 22-22h28M480 80h30c12 0 22 10 22 22v70" stroke="#9bf7ea" stroke-width="10" opacity=".92"/>
    <path d="M306 80h28M306 108h28M306 136h28M306 164h28M407 58h40M407 86h40M407 114h40M407 142h40M407 170h40" stroke="#f2fffd" stroke-width="5.5" opacity=".92"/>
    <path d="M188 192c58-33 116-33 174 0M374 192c58-33 116-33 174 0" stroke="#46dbc7" stroke-width="10"/>
    <path d="M160 210h410" stroke="#f8fffe" stroke-width="7" opacity=".96"/>
  </g>
  <text x="380" y="255" text-anchor="middle" font-family="Georgia, 'Times New Roman', serif" font-size="44" font-weight="700" letter-spacing="3" fill="#ffffff">VITÓRIA RÉGIA</text>
  <path d="M206 270h118M436 270h118" stroke="url(#line)" stroke-width="3" stroke-linecap="round"/>
  <text x="380" y="286" text-anchor="middle" font-family="Inter, Arial, sans-serif" font-size="15" letter-spacing="8" fill="#bdf9f0">CONDOMÍNIO</text>
</svg>
