<svg xmlns="http://www.w3.org/2000/svg" viewBox="0 0 256 256" role="img" aria-label="Condomínio Vitória Régia">
  <defs>
    <linearGradient id="vrbg" x1="0" y1="0" x2="1" y2="1">
      <stop offset="0" stop-color="#0b5f55"/>
      <stop offset="0.55" stop-color="#168b7b"/>
      <stop offset="1" stop-color="#5dc5b3"/>
    </linearGradient>
    <linearGradient id="vrglass" x1="0" y1="0" x2="1" y2="0">
      <stop offset="0" stop-color="#ffffff" stop-opacity="0.95"/>
      <stop offset="1" stop-color="#dff8f3" stop-opacity="0.90"/>
    </linearGradient>
    <filter id="shadow" x="-20%" y="-20%" width="140%" height="140%">
      <feDropShadow dx="0" dy="10" stdDeviation="10" flood-color="#082d28" flood-opacity="0.28"/>
    </filter>
  </defs>
  <rect width="256" height="256" rx="58" fill="url(#vrbg)"/>
  <circle cx="207" cy="44" r="34" fill="#ffffff" opacity="0.10"/>
  <circle cx="46" cy="212" r="42" fill="#ffffff" opacity="0.09"/>
  <g filter="url(#shadow)">
    <path d="M47 217h162" fill="none" stroke="#ffffff" stroke-width="12" stroke-linecap="round" opacity="0.96"/>
    <path d="M61 211V74c0-13 9-22 22-22h41v159" fill="rgba(255,255,255,.08)" stroke="#ffffff" stroke-width="9" stroke-linejoin="round"/>
    <path d="M132 211V52h41c13 0 22 9 22 22v137" fill="rgba(255,255,255,.08)" stroke="#ffffff" stroke-width="9" stroke-linejoin="round"/>
    <path d="M118 211V92h28v119" fill="#ffffff" opacity="0.94"/>
    <path d="M52 72h73" stroke="#ffffff" stroke-width="8" stroke-linecap="round" opacity="0.94"/>
    <path d="M131 72h73" stroke="#ffffff" stroke-width="8" stroke-linecap="round" opacity="0.94"/>
    <g fill="url(#vrglass)">
      <rect x="77" y="88" width="29" height="9" rx="3"/><rect x="77" y="112" width="29" height="9" rx="3"/><rect x="77" y="136" width="29" height="9" rx="3"/><rect x="77" y="160" width="29" height="9" rx="3"/><rect x="77" y="184" width="29" height="9" rx="3"/>
      <rect x="151" y="88" width="29" height="9" rx="3"/><rect x="151" y="112" width="29" height="9" rx="3"/><rect x="151" y="136" width="29" height="9" rx="3"/><rect x="151" y="160" width="29" height="9" rx="3"/><rect x="151" y="184" width="29" height="9" rx="3"/>
    </g>
    <path d="M104 221c0-18 10-32 24-32s24 14 24 32" fill="#0b5f55" opacity="0.42"/>
  </g>
</svg>
