<svg xmlns="http://www.w3.org/2000/svg" viewBox="0 0 512 512" role="img" aria-label="Condomínio Vitória Régia">
  <defs>
    <linearGradient id="a" x1="116" y1="56" x2="404" y2="452" gradientUnits="userSpaceOnUse">
      <stop stop-color="#0b4e6f"/><stop offset=".48" stop-color="#0a7b7b"/><stop offset="1" stop-color="#26c2a8"/>
    </linearGradient>
    <linearGradient id="b" x1="88" y1="404" x2="424" y2="462" gradientUnits="userSpaceOnUse">
      <stop stop-color="#032845"/><stop offset="1" stop-color="#0fa58f"/>
    </linearGradient>
    <filter id="s" x="-20%" y="-20%" width="140%" height="140%"><feDropShadow dx="0" dy="18" stdDeviation="18" flood-color="#032845" flood-opacity=".18"/></filter>
  </defs>
  <rect width="512" height="512" rx="110" fill="none"/>
  <g filter="url(#s)" fill="none" stroke-linecap="round" stroke-linejoin="round">
    <path d="M106 421h300" stroke="url(#b)" stroke-width="25"/>
    <path d="M142 396V188l88-72v280" stroke="url(#a)" stroke-width="25"/>
    <path d="M230 396V93l74 58v245" stroke="url(#a)" stroke-width="25"/>
    <path d="M304 396V184l66 50v162" stroke="url(#a)" stroke-width="25"/>
    <path d="M169 223h37M169 268h37M169 313h37M169 358h37M257 165h36M257 212h36M257 259h36M257 306h36M257 353h36M329 248h28M329 292h28M329 336h28" stroke="#032845" stroke-opacity=".82" stroke-width="14"/>
    <path d="M121 442c43-35 91-35 135 0 43-35 91-35 135 0" stroke="#1bb99d" stroke-width="15"/>
  </g>
</svg>
