<svg xmlns="http://www.w3.org/2000/svg" viewBox="0 0 256 256" role="img" aria-label="Condomínio Vitória Régia"><defs><linearGradient id="bg" x1="0" x2="1" y1="0" y2="1"><stop offset="0" stop-color="#0f5f55"/><stop offset="1" stop-color="#47b8a7"/></linearGradient><linearGradient id="glass" x1="0" x2="1"><stop offset="0" stop-color="#dff8f3"/><stop offset="1" stop-color="#ffffff"/></linearGradient></defs><rect width="256" height="256" rx="54" fill="url(#bg)"/><path d="M45 214h166" stroke="#fff" stroke-width="14" stroke-linecap="round" opacity=".95"/><path d="M60 208V70c0-12 8-20 20-20h38v158" fill="none" stroke="#fff" stroke-width="12" stroke-linejoin="round"/><path d="M138 208V50h38c12 0 20 8 20 20v138" fill="none" stroke="#fff" stroke-width="12" stroke-linejoin="round"/><path d="M118 208V90h20v118" fill="#ffffff" opacity=".96"/><g fill="url(#glass)"><rect x="76" y="72" width="24" height="10" rx="3"/><rect x="76" y="98" width="24" height="10" rx="3"/><rect x="76" y="124" width="24" height="10" rx="3"/><rect x="76" y="150" width="24" height="10" rx="3"/><rect x="76" y="176" width="24" height="10" rx="3"/><rect x="156" y="72" width="24" height="10" rx="3"/><rect x="156" y="98" width="24" height="10" rx="3"/><rect x="156" y="124" width="24" height="10" rx="3"/><rect x="156" y="150" width="24" height="10" rx="3"/><rect x="156" y="176" width="24" height="10" rx="3"/></g><path d="M104 218c0-15 10-28 24-28s24 13 24 28" fill="#0f5f55" opacity=".38"/><path d="M37 54c24 2 39 14 47 36" fill="none" stroke="#d7f5ed" stroke-width="8" stroke-linecap="round" opacity=".6"/></svg>